<svg width="860" height="105" viewBox="0 0 860 105" fill="none" xmlns="http://www.w3.org/2000/svg">
<path d="M19.2443 51.8977V91H0.485779V0.81818H18.7159V35.2969H19.5085C21.035 31.3044 23.5009 28.178 26.9062 25.9176C30.3115 23.6278 34.5828 22.483 39.7202 22.483C44.4171 22.483 48.5123 23.5104 52.0057 25.5653C55.5284 27.5909 58.2585 30.5118 60.196 34.3281C62.1629 38.1151 63.1316 42.6506 63.1023 47.9347V91H44.3437V51.2812C44.3731 47.1127 43.3163 43.8688 41.1733 41.5497C39.0596 39.2306 36.0947 38.071 32.2784 38.071C29.7244 38.071 27.464 38.6141 25.4971 39.7003C23.5596 40.7865 22.0331 42.3717 20.9176 44.456C19.8314 46.5109 19.2737 48.9915 19.2443 51.8977Z" fill="black"/>
<path d="M121.238 62.2017V23.3636H139.997V91H121.987V78.7145H121.282C119.756 82.6775 117.216 85.8627 113.664 88.2699C110.142 90.6771 105.841 91.8807 100.762 91.8807C96.2416 91.8807 92.2638 90.8532 88.8292 88.7983C85.3945 86.7434 82.7084 83.8224 80.7709 80.0355C78.8628 76.2486 77.894 71.7131 77.8647 66.429V23.3636H96.6232V63.0824C96.6526 67.0748 97.7241 70.2306 99.8377 72.5497C101.951 74.8688 104.784 76.0284 108.336 76.0284C110.597 76.0284 112.71 75.5147 114.677 74.4872C116.644 73.4304 118.229 71.8745 119.433 69.8196C120.666 67.7647 121.268 65.2254 121.238 62.2017Z" fill="black"/>
<path d="M155.001 91V23.3636H172.879V35.2969H173.672C175.081 31.3338 177.429 28.2074 180.717 25.9176C184.005 23.6278 187.939 22.483 192.518 22.483C197.157 22.483 201.105 23.6425 204.364 25.9616C207.622 28.2514 209.795 31.3632 210.881 35.2969H211.585C212.965 31.4219 215.46 28.3248 219.071 26.0057C222.711 23.6572 227.012 22.483 231.973 22.483C238.285 22.483 243.407 24.4938 247.341 28.5156C251.304 32.508 253.286 38.1738 253.286 45.5128V91H234.571V49.2116C234.571 45.4541 233.573 42.6359 231.577 40.7571C229.58 38.8783 227.085 37.9389 224.091 37.9389C220.686 37.9389 218.029 39.0251 216.121 41.1974C214.213 43.3404 213.259 46.1733 213.259 49.696V91H195.072V48.8153C195.072 45.4981 194.118 42.8561 192.21 40.8892C190.331 38.9223 187.851 37.9389 184.768 37.9389C182.684 37.9389 180.805 38.4673 179.132 39.5241C177.488 40.5516 176.182 42.0047 175.213 43.8835C174.244 45.733 173.76 47.9053 173.76 50.4006V91H155.001Z" fill="black"/>
<path d="M372.959 51.8977V91H354.201V23.3636H372.078V35.2969H372.871C374.368 31.3632 376.878 28.2514 380.401 25.9616C383.924 23.6425 388.195 22.483 393.215 22.483C397.912 22.483 402.007 23.5104 405.5 25.5653C408.994 27.6203 411.709 30.5559 413.647 34.3722C415.584 38.1591 416.553 42.6799 416.553 47.9347V91H397.794V51.2812C397.824 47.142 396.767 43.9129 394.624 41.5938C392.481 39.2453 389.531 38.071 385.773 38.071C383.248 38.071 381.017 38.6141 379.08 39.7003C377.172 40.7865 375.675 42.3717 374.588 44.456C373.532 46.5109 372.988 48.9915 372.959 51.8977Z" fill="black"/>
<path d="M473.478 46.5256V61.4091H432.35V46.5256H473.478Z" fill="black"/>
<path d="M520.286 92.321C513.329 92.321 507.34 90.9119 502.32 88.0938C497.33 85.2462 493.484 81.2244 490.783 76.0284C488.083 70.803 486.732 64.6236 486.732 57.4901C486.732 50.5327 488.083 44.4266 490.783 39.1719C493.484 33.9171 497.286 29.822 502.188 26.8864C507.12 23.9508 512.903 22.483 519.538 22.483C524 22.483 528.154 23.2022 531.999 24.6406C535.874 26.0497 539.25 28.178 542.127 31.0256C545.033 33.8731 547.294 37.4545 548.908 41.7699C550.523 46.0559 551.33 51.0758 551.33 56.8295V61.9815H494.218V50.3565H533.673C533.673 47.6558 533.085 45.2633 531.911 43.179C530.737 41.0947 529.108 39.4654 527.023 38.2912C524.969 37.0876 522.576 36.4858 519.846 36.4858C516.998 36.4858 514.474 37.1463 512.272 38.4673C510.1 39.759 508.397 41.5057 507.164 43.7074C505.931 45.8797 505.3 48.3016 505.271 50.973V62.0256C505.271 65.3722 505.887 68.2637 507.12 70.7003C508.382 73.1368 510.158 75.0156 512.448 76.3366C514.738 77.6577 517.453 78.3182 520.594 78.3182C522.679 78.3182 524.587 78.0246 526.319 77.4375C528.051 76.8504 529.533 75.9697 530.766 74.7955C531.999 73.6212 532.939 72.1828 533.585 70.4801L550.934 71.625C550.053 75.7936 548.248 79.4337 545.518 82.5455C542.817 85.6278 539.324 88.035 535.038 89.767C530.781 91.4697 525.864 92.321 520.286 92.321Z" fill="black"/>
<path d="M563.572 91V23.3636H581.758V35.1648H582.462C583.695 30.9669 585.765 27.7964 588.671 25.6534C591.577 23.4811 594.924 22.3949 598.711 22.3949C599.65 22.3949 600.663 22.4536 601.749 22.571C602.835 22.6884 603.79 22.8499 604.612 23.0554V39.7003C603.731 39.4361 602.513 39.2012 600.957 38.9957C599.401 38.7902 597.977 38.6875 596.685 38.6875C593.926 38.6875 591.46 39.2893 589.288 40.4929C587.145 41.6671 585.442 43.3111 584.18 45.4247C582.947 47.5383 582.33 49.9749 582.33 52.7344V91H563.572Z" fill="black"/>
<path d="M614.31 91V23.3636H632.496V35.1648H633.201C634.434 30.9669 636.503 27.7964 639.409 25.6534C642.316 23.4811 645.662 22.3949 649.449 22.3949C650.389 22.3949 651.401 22.4536 652.488 22.571C653.574 22.6884 654.528 22.8499 655.35 23.0554V39.7003C654.469 39.4361 653.251 39.2012 651.695 38.9957C650.139 38.7902 648.715 38.6875 647.424 38.6875C644.664 38.6875 642.198 39.2893 640.026 40.4929C637.883 41.6671 636.18 43.3111 634.918 45.4247C633.685 47.5383 633.069 49.9749 633.069 52.7344V91H614.31Z" fill="black"/>
<path d="M751.146 91V23.3636H769.332V35.1648H770.037C771.27 30.9669 773.339 27.7964 776.245 25.6534C779.152 23.4811 782.498 22.3949 786.285 22.3949C787.225 22.3949 788.237 22.4536 789.323 22.571C790.41 22.6884 791.364 22.8499 792.186 23.0554V39.7003C791.305 39.4361 790.087 39.2012 788.531 38.9957C786.975 38.7902 785.551 38.6875 784.26 38.6875C781.5 38.6875 779.034 39.2893 776.862 40.4929C774.719 41.6671 773.016 43.3111 771.754 45.4247C770.521 47.5383 769.904 49.9749 769.904 52.7344V91H751.146Z" fill="black"/>
<path d="M858.16 42.6506L840.987 43.7074C840.693 42.2396 840.062 40.9186 839.093 39.7443C838.124 38.5407 836.847 37.5866 835.262 36.8821C833.706 36.1482 831.842 35.7812 829.67 35.7812C826.763 35.7812 824.312 36.3977 822.316 37.6307C820.32 38.8343 819.322 40.4489 819.322 42.4744C819.322 44.089 819.968 45.4541 821.259 46.5696C822.551 47.6851 824.767 48.5805 827.908 49.2557L840.15 51.7216C846.726 53.072 851.628 55.2443 854.857 58.2386C858.086 61.233 859.701 65.1667 859.701 70.0398C859.701 74.4725 858.395 78.3622 855.782 81.7088C853.199 85.0554 849.647 87.6681 845.126 89.5469C840.634 91.3963 835.453 92.321 829.582 92.321C820.628 92.321 813.495 90.4569 808.181 86.7287C802.897 82.9711 799.8 77.8632 798.89 71.4048L817.34 70.4361C817.898 73.1662 819.248 75.2505 821.391 76.6889C823.534 78.098 826.279 78.8026 829.626 78.8026C832.914 78.8026 835.556 78.1714 837.552 76.9091C839.577 75.6174 840.605 73.9588 840.634 71.9332C840.605 70.2306 839.886 68.8362 838.477 67.75C837.067 66.6345 834.895 65.7831 831.96 65.196L820.246 62.8622C813.641 61.5412 808.724 59.2514 805.495 55.9929C802.295 52.7344 800.695 48.5805 800.695 43.5312C800.695 39.1866 801.87 35.4437 804.218 32.3026C806.596 29.1615 809.928 26.7396 814.214 25.0369C818.529 23.3343 823.578 22.483 829.362 22.483C837.904 22.483 844.627 24.2884 849.529 27.8991C854.461 31.5099 857.338 36.4271 858.16 42.6506Z" fill="black"/>
<path d="M304.5 46.875V61.4062M268.451 74.4882C265.095 80.3007 269.292 87.5625 275.999 87.5625H333.001C339.704 87.5625 343.901 80.3007 340.549 74.4882L312.052 25.0898C308.697 19.2773 300.303 19.2773 296.948 25.0898L268.451 74.4882ZM304.5 73.0312H304.527V73.0623H304.5V73.0312Z" stroke="#EF4444" stroke-width="10" stroke-linecap="round" stroke-linejoin="round"/>
<path d="M700.5 45.625V60.4687M736.125 57.5C736.125 62.1783 735.204 66.8109 733.413 71.1331C731.623 75.4553 728.999 79.3826 725.691 82.6907C722.383 85.9988 718.455 88.6229 714.133 90.4132C709.811 92.2035 705.178 93.125 700.5 93.125C695.822 93.125 691.189 92.2035 686.867 90.4132C682.545 88.6229 678.617 85.9988 675.309 82.6907C672.001 79.3826 669.377 75.4553 667.587 71.1331C665.796 66.8109 664.875 62.1783 664.875 57.5C664.875 48.0517 668.628 38.9903 675.309 32.3093C681.99 25.6283 691.052 21.875 700.5 21.875C709.948 21.875 719.01 25.6283 725.691 32.3093C732.372 38.9903 736.125 48.0517 736.125 57.5ZM700.5 72.3437H700.532V72.3754H700.5V72.3437Z" stroke="#EF4444" stroke-width="10" stroke-linecap="round" stroke-linejoin="round"/>
</svg>
